<svg width="248" height="49" viewBox="0 0 248 49" fill="none" xmlns="http://www.w3.org/2000/svg">
<path d="M74.2134 15.3784L74.1598 15.0239L74.1061 15.3784C73.2747 20.4502 69.3857 24.4314 64.3702 25.2767L64.0215 25.3312L64.3702 25.3858C69.3588 26.2311 73.2747 30.185 74.1061 35.2841L74.1598 35.6386L74.2134 35.2841C75.0449 30.2122 78.9339 26.2311 83.9494 25.3858L84.2981 25.3312L83.9494 25.2767C78.9607 24.4314 75.0449 20.4502 74.2134 15.3784Z" fill="#FFD60B"/>
<path d="M74.1599 1.98956C61.5004 1.98956 51.2012 12.4605 51.2012 25.3311C51.2012 38.2017 61.5004 48.6726 74.1599 48.6726C86.8193 48.6726 97.1185 38.2017 97.1185 25.3311C97.1185 12.4605 86.8461 1.98956 74.1599 1.98956ZM93.9268 23.6677L86.9802 22.7406C86.417 16.2235 83.7617 10.2518 79.5777 5.91618C87.3826 8.17943 93.2563 15.1873 93.9268 23.6677ZM83.7885 22.3316L79.98 21.8135C78.773 21.5954 77.8343 20.641 77.6197 19.4139L76.0105 6.89783C80.3018 10.6336 83.0912 16.169 83.7885 22.3316ZM72.336 6.9251L70.7268 19.4412C70.5122 20.6682 69.5735 21.6226 68.3665 21.8408L64.558 22.3316C65.2553 16.169 68.0715 10.6336 72.336 6.9251ZM68.7689 5.91618C64.5848 10.2518 61.9295 16.2235 61.3663 22.7406L54.3929 23.6677C55.0902 15.1873 60.964 8.17943 68.7689 5.91618ZM54.4197 26.9672L61.3931 27.8943C61.9563 34.4114 64.6116 40.3831 68.7957 44.7187C60.964 42.4828 55.0902 35.4476 54.4197 26.9672ZM64.558 28.3306L68.3665 28.8214C69.5735 29.0396 70.5122 29.9939 70.7268 31.221L72.336 43.7371C68.0715 40.0286 65.2553 34.4659 64.558 28.3306ZM74.5085 30.7847L74.1599 33.4297L73.8112 30.7847C73.8112 30.7575 73.8112 30.7575 73.8112 30.7302C73.382 28.1397 71.3973 26.1219 68.8493 25.6856C68.8225 25.6856 68.8225 25.6856 68.7957 25.6856L66.194 25.3311L68.7957 24.9766C68.8225 24.9766 68.8225 24.9766 68.8493 24.9766C71.3973 24.5403 73.382 22.5225 73.8112 19.932C73.8112 19.9047 73.8112 19.9047 73.8112 19.8775L74.1599 17.2325L74.5085 19.8775C74.5085 19.9047 74.5085 19.9047 74.5085 19.932C74.9377 22.5225 76.9224 24.5403 79.4704 24.9766C79.4972 24.9766 79.4972 24.9766 79.524 24.9766L82.1257 25.3311L79.524 25.6856C79.4972 25.6856 79.4972 25.6856 79.4704 25.6856C76.9224 26.1219 74.9377 28.1397 74.5085 30.7302C74.5085 30.7302 74.5085 30.7575 74.5085 30.7847ZM76.0105 43.7371L77.6197 31.221C77.8343 29.9939 78.773 29.0396 79.98 28.8214L83.7885 28.3033C83.0912 34.4932 80.3018 40.0286 76.0105 43.7371ZM79.5777 44.7187C83.7617 40.3831 86.417 34.4114 86.9802 27.8943L93.9268 26.9672C93.2563 35.4476 87.3826 42.4555 79.5777 44.7187Z" fill="black"/>
<path d="M6.43701 40.9019L0 10.2253H12.7667L14.7247 23.5048C14.9392 24.9228 15.2074 27.2133 15.3952 29.7765H15.8243C16.0121 27.2133 16.2535 24.9501 16.4948 23.3958L18.3455 10.198H30.3881L32.5337 23.3412C32.8019 25.0591 33.0701 27.3224 33.2311 29.7765H33.7138C33.848 27.3224 34.0893 25.0864 34.3039 23.5048L35.9936 10.2253H48.3849L41.9747 40.9019H26.3649L25.2653 31.958C24.8898 28.8494 24.5948 25.9044 24.3534 22.4414H23.8974C23.7365 25.9044 23.4415 28.9039 23.066 31.958L22.0468 40.9019H6.43701Z" fill="black"/>
<path d="M102.831 40.9021V10.2254H116.563C116.644 12.3251 116.349 13.9066 115.303 16.9061L115.732 17.2606C118.602 12.1615 122.249 9.62555 127.882 9.62555C134.211 9.62555 137.725 12.9795 137.725 19.9056V40.9021H123.751V25.1411C123.751 22.3325 122.813 21.0236 120.828 21.0236C118.226 21.0236 116.778 23.8323 116.778 28.9041V40.9021H102.831Z" fill="black"/>
<path d="M142.445 25.6048V25.4957C142.445 14.5885 146.254 9.35297 154.166 9.35297C159.021 9.35297 162.427 11.8071 164.68 16.9062L165.109 16.6063C164.17 13.225 163.848 10.8255 163.848 7.55327V0H177.822V40.9022H163.875C163.875 39.6206 164.251 37.3846 165.136 34.1942L164.707 33.9216C162.481 39.0207 159.074 41.4748 154.193 41.4748C146.281 41.4748 142.445 36.2939 142.445 25.6048ZM163.875 25.8229V25.0049C163.875 20.8874 162.615 18.8968 160.067 18.8968C157.626 18.8968 156.446 20.8874 156.446 25.0049V25.8229C156.446 29.9131 157.626 31.8765 160.067 31.8765C162.615 31.8765 163.875 29.9131 163.875 25.8229Z" fill="black"/>
<path d="M218.376 28.74H197.161C197.429 31.6577 198.609 33.0756 200.808 33.0756C202.739 33.0756 203.812 32.0939 204.107 30.0488L218.349 30.8941C217.571 38.2565 211.885 41.8014 200.835 41.8014C188.605 41.8014 182.704 36.7841 182.704 26.2858V24.9497C182.704 14.4515 188.605 9.37958 200.835 9.37958C212.851 9.37958 218.644 14.3696 218.644 24.677C218.617 26.1222 218.537 27.4584 218.376 28.74ZM204.322 21.8411V21.732C204.322 19.2234 203.195 18.0236 200.808 18.0236C198.797 18.0236 197.617 19.2779 197.241 21.8411H204.322Z" fill="black"/>
<path d="M223.177 40.9012V10.2245H236.909C236.989 12.2151 236.614 14.0966 235.648 16.8507L236.078 17.2324C239.993 11.3698 242.059 9.70642 246.591 9.02472L247.396 22.6588L242.568 23.0133C238.196 23.3405 237.15 25.3038 237.15 32.4753V40.9012H223.177Z" fill="black"/>
</svg>
