<svg width="50" height="28" fill="none" xmlns="http://www.w3.org/2000/svg"><path d="M23.67 19.214a10.51 10.51 0 00-5.418-5.487 6.998 6.998 0 10-8.49.01 10.644 10.644 0 00-5.438 5.546 10.32 10.32 0 00-.824 4.05V24.5a2.336 2.336 0 002.334 2.334h16.332A2.336 2.336 0 0024.5 24.5v-1.207c.003-1.402-.28-2.79-.83-4.08zM10.7 4.867a4.667 4.667 0 116.6 6.6 4.667 4.667 0 01-6.6-6.6zM22.166 24.5H5.834v-1.166a8.002 8.002 0 01.638-3.14 8.316 8.316 0 014.329-4.365 8.001 8.001 0 013.144-.662 8.17 8.17 0 017.58 4.96 8.033 8.033 0 01.643 3.166l-.002 1.207z" fill="#000"/><path d="M29 4h21M29 14h21M29 25h21" stroke="#000" stroke-width="2" stroke-miterlimit="10"/></svg>