<svg width="32" height="32" fill="none" xmlns="http://www.w3.org/2000/svg"><path fill-rule="evenodd" clip-rule="evenodd" d="M16 4C9.373 4 4 9.373 4 16s5.373 12 12 12c2.243 0 4.34-.615 6.135-1.684a1.008 1.008 0 01.811-.095l4.776 1.5-1.501-4.774a1.003 1.003 0 01.094-.812A11.934 11.934 0 0028 16c0-6.627-5.373-12-12-12zM2 16C2 8.268 8.268 2 16 2s14 6.268 14 14c0 2.452-.63 4.759-1.74 6.765l1.657 5.27c.363 1.158-.725 2.245-1.88 1.882l-5.272-1.657A13.94 13.94 0 0116 30C8.268 30 2 23.732 2 16zm15-1.5V22a.995.995 0 01-.8.98A1 1 0 0115 22v-7.5a1 1 0 112 0zM16 12a1.5 1.5 0 100-3 1.5 1.5 0 000 3z" fill="#000"/></svg>