<svg width="248" height="49" fill="none" xmlns="http://www.w3.org/2000/svg"><path d="M74.213 15.378l-.053-.354-.054.354c-.831 5.072-4.72 9.053-9.736 9.899l-.349.054.35.055c4.988.845 8.904 4.799 9.735 9.898l.054.355.053-.355c.832-5.072 4.72-9.053 9.736-9.898l.35-.055-.35-.054c-4.988-.846-8.904-4.827-9.736-9.899z" fill="#FFD60B"/><path d="M74.16 1.99C61.5 1.99 51.2 12.46 51.2 25.33s10.3 23.342 22.959 23.342c12.66 0 22.959-10.471 22.959-23.342 0-12.87-10.273-23.341-22.96-23.341zm19.767 21.678l-6.947-.927c-.563-6.517-3.218-12.49-7.402-16.825 7.805 2.263 13.678 9.271 14.349 17.752zm-10.139-1.336l-3.808-.518a2.934 2.934 0 01-2.36-2.4L76.01 6.898c4.292 3.736 7.081 9.271 7.778 15.434zM72.337 6.925l-1.61 12.516a2.934 2.934 0 01-2.36 2.4l-3.808.49c.697-6.162 3.513-11.697 7.778-15.406zM68.77 5.916c-4.184 4.336-6.84 10.308-7.403 16.825l-6.973.927c.697-8.48 6.571-15.489 14.376-17.752zM54.42 26.967l6.974.927c.563 6.517 3.219 12.49 7.403 16.825-7.832-2.236-13.706-9.271-14.376-17.752zm10.139 1.364l3.808.49a2.934 2.934 0 012.36 2.4l1.61 12.516c-4.264-3.708-7.08-9.271-7.778-15.406zm9.95 2.454l-.348 2.645-.349-2.645v-.055c-.429-2.59-2.414-4.608-4.962-5.044h-.053l-2.602-.355 2.602-.354h.053c2.548-.437 4.533-2.454 4.962-5.045v-.054l.349-2.645.349 2.645v.054c.429 2.59 2.413 4.608 4.961 5.045h.054l2.602.354-2.602.355h-.054c-2.548.436-4.532 2.454-4.962 5.044v.055zm1.502 12.952l1.61-12.516a2.934 2.934 0 012.36-2.4l3.808-.518c-.697 6.19-3.486 11.726-7.778 15.434zm3.568.982c4.184-4.336 6.839-10.308 7.402-16.825l6.947-.927c-.67 8.48-6.544 15.489-14.35 17.752zM6.437 40.902L0 10.225h12.767l1.958 13.28c.214 1.418.482 3.708.67 6.271h.43c.187-2.563.428-4.826.67-6.38l1.85-13.198h12.043l2.146 13.143a74.74 74.74 0 01.697 6.435h.483c.134-2.454.375-4.69.59-6.271l1.69-13.28h12.39l-6.41 30.677h-15.61l-1.099-8.944c-.375-3.109-.67-6.054-.912-9.517h-.456c-.16 3.463-.455 6.463-.831 9.517l-1.02 8.944H6.438zm96.394 0V10.225h13.732c.081 2.1-.214 3.682-1.26 6.681l.429.355c2.87-5.1 6.517-7.635 12.15-7.635 6.329 0 9.843 3.354 9.843 10.28v20.996h-13.974v-15.76c0-2.81-.938-4.118-2.923-4.118-2.602 0-4.05 2.808-4.05 7.88v11.998h-13.947zm39.614-15.297v-.11c0-10.907 3.809-16.142 11.721-16.142 4.855 0 8.261 2.454 10.514 7.553l.429-.3c-.939-3.381-1.261-5.78-1.261-9.053V0h13.974v40.902h-13.947c0-1.281.376-3.517 1.261-6.708l-.429-.272c-2.226 5.099-5.633 7.553-10.514 7.553-7.912 0-11.748-5.181-11.748-15.87zm21.43.218v-.818c0-4.118-1.26-6.108-3.808-6.108-2.441 0-3.621 1.99-3.621 6.108v.818c0 4.09 1.18 6.053 3.621 6.053 2.548 0 3.808-1.963 3.808-6.053zm54.501 2.917h-21.215c.268 2.918 1.448 4.336 3.647 4.336 1.931 0 3.004-.982 3.299-3.027l14.242.845c-.778 7.363-6.464 10.907-17.514 10.907-12.23 0-18.131-5.017-18.131-15.515V24.95c0-10.498 5.901-15.57 18.131-15.57 12.016 0 17.809 4.99 17.809 15.297a38.249 38.249 0 01-.268 4.063zm-14.054-6.899v-.109c0-2.509-1.127-3.708-3.514-3.708-2.011 0-3.191 1.254-3.567 3.817h7.081zm18.855 19.06V10.224h13.732c.08 1.991-.295 3.873-1.261 6.627l.43.381c3.915-5.862 5.981-7.526 10.513-8.207l.805 13.634-4.828.354c-4.372.327-5.418 2.29-5.418 9.462v8.426h-13.973z" fill="#000"/></svg>