<svg width="21" height="26" fill="none" xmlns="http://www.w3.org/2000/svg"><path d="M20 10.45v11.356a2.284 2.284 0 01-2.284 2.284H3.284A2.284 2.284 0 011 21.806V3.284A2.284 2.284 0 013.284 1h7.05c.098 0 .176.079.176.176v6.859a2.284 2.284 0 002.284 2.283h7.075a.133.133 0 01.131.131z" stroke="#A40303" stroke-width="2" stroke-miterlimit="10"/><path d="M19.923 10.318h-7.054a2.359 2.359 0 01-2.36-2.36V1h.095l9.319 9.318z" stroke="#A40303" stroke-width="2" stroke-miterlimit="10" stroke-linejoin="bevel"/><path d="M8.528 17.415a1.02 1.02 0 01-.435.415c-.198.104-.447.157-.747.157h-.614v1.405h-.734v-3.66h1.348c.283 0 .524.05.723.147.2.098.35.233.449.404.1.171.15.365.15.582a1.156 1.156 0 01-.14.55zm-.763-.16a.512.512 0 00.147-.39c0-.357-.2-.535-.598-.535h-.582v1.065h.582c.202 0 .353-.047.45-.14zm3.715-1.297c.291.15.517.365.676.642.159.278.238.6.238.967s-.08.688-.238.962a1.618 1.618 0 01-.676.637 2.19 2.19 0 01-1.015.226h-1.28v-3.66h1.28c.384 0 .722.075 1.015.226zm-.15 2.495c.21-.21.315-.505.315-.886 0-.38-.105-.679-.315-.894-.21-.214-.507-.322-.891-.322h-.52v2.417h.52c.384 0 .681-.105.891-.315zm3.874-2.721v.593h-1.526v.938h1.17v.582h-1.17v1.547h-.734v-3.66h2.26z" fill="#8F0A0A"/></svg>