<svg width="47" height="47" fill="none" xmlns="http://www.w3.org/2000/svg"><g clip-path="url(#clip0_107_206)" fill="#000"><path d="M18.944 36.082a2.146 2.146 0 01-1.472-.584l-7.894-7.436a2.147 2.147 0 112.945-3.126l6.3 5.934 14.521-16.033a2.146 2.146 0 113.183 2.883L20.536 35.376a2.146 2.146 0 01-1.592.706z"/><path d="M44.345 47H2.148A2.147 2.147 0 010 44.853V2.148C0 .962.962 0 2.148 0h42.197c1.187 0 2.147.962 2.147 2.148v42.705c0 1.186-.96 2.147-2.147 2.147zm-40.05-4.294h37.902V4.295H4.295v38.411z"/></g><defs><clipPath id="clip0_107_206"><path fill="#fff" d="M0 0h46.492v47H0z"/></clipPath></defs></svg>