<svg width="47" height="48" fill="none" xmlns="http://www.w3.org/2000/svg"><path d="M30.785 24.108a6.685 6.685 0 00-6.677 6.677 6.684 6.684 0 006.677 6.677 6.685 6.685 0 006.678-6.677 6.685 6.685 0 00-6.678-6.677zm0 10.406a3.733 3.733 0 01-3.728-3.729 3.733 3.733 0 013.729-3.729 3.733 3.733 0 013.728 3.73 3.733 3.733 0 01-3.729 3.728z" fill="#fff"/><path d="M45.526 26.658h-3.58a16.019 16.019 0 00-.387-.909l2.532-2.506c.576-.576.575-1.51.001-2.085l-3.677-3.679a1.463 1.463 0 00-2.076 0l-2.518 2.532a16.024 16.024 0 00-.909-.388v-3.58c0-.813-.712-1.474-1.526-1.474h-5.203c-.814 0-1.526.66-1.526 1.475v3.58a15.98 15.98 0 00-.909.387l-2.506-2.532a1.475 1.475 0 00-2.085-.001l-3.679 3.677a1.463 1.463 0 000 2.075l2.532 2.519c-.142.306-.272.614-.388.908h-3.58c-.814 0-1.474.712-1.474 1.527v5.203c0 .814.66 1.526 1.475 1.526h3.58c.115.295.244.602.387.908l-2.532 2.506a1.475 1.475 0 00-.001 2.085l3.677 3.68a1.464 1.464 0 002.075 0l2.52-2.533c.305.143.613.272.907.388v3.58c0 .814.713 1.474 1.527 1.474h5.203c.814 0 1.526-.66 1.526-1.474v-3.58c.295-.116.602-.245.908-.387l2.506 2.532c.577.576 1.51.575 2.085 0l3.68-3.676a1.463 1.463 0 000-2.076l-2.533-2.519c.143-.306.272-.613.388-.908h3.58c.814 0 1.474-.712 1.474-1.526v-5.203c0-.814-.66-1.526-1.474-1.526zm-1.474 5.307h-3.19c-.672 0-1.26.429-1.427 1.08a8.69 8.69 0 01-.955 2.276 1.474 1.474 0 00.227 1.792l2.258 2.257-1.593 1.594-2.253-2.256a1.465 1.465 0 00-1.786-.227 8.784 8.784 0 01-2.289.955c-.651.167-1.08.755-1.08 1.428v3.189h-2.359v-3.19c0-.672-.43-1.26-1.08-1.427a8.693 8.693 0 01-2.276-.955 1.475 1.475 0 00-1.793.227L22.2 40.966l-1.594-1.593 2.256-2.253a1.465 1.465 0 00.227-1.786 8.789 8.789 0 01-.955-2.289c-.168-.651-.755-1.08-1.428-1.08h-3.19v-2.36h3.19c.673 0 1.26-.428 1.428-1.08a8.696 8.696 0 01.955-2.275 1.474 1.474 0 00-.228-1.793l-2.257-2.256 1.593-1.594 2.253 2.256a1.465 1.465 0 001.786.227 8.784 8.784 0 012.288-.955c.652-.168 1.08-.755 1.08-1.428v-3.19h2.36v3.19c0 .673.429 1.26 1.08 1.428a8.693 8.693 0 012.276.955 1.475 1.475 0 001.792-.228l2.257-2.257 1.594 1.593-2.257 2.253a1.465 1.465 0 00-.226 1.785c.426.722.747 1.483.955 2.29.167.65.755 1.08 1.427 1.08h3.19v2.359zM12.175 3.09l.363 3.562c-.282.145-.576.304-.865.476l-2.75-2.265a1.476 1.476 0 00-2.074.209l-3.287 4.03a1.467 1.467 0 00.21 2.067l2.773 2.25c-.11.318-.207.638-.292.943l-3.562.363c-.81.082-1.395.857-1.312 1.667l.527 5.177c.082.81.811 1.451 1.621 1.369l3.562-.363c.145.281.305.575.477.865l-2.265 2.75c-.514.631-.42 1.56.212 2.074l2.016 1.644a1.474 1.474 0 001.863-2.284l-.874-.71 2.016-2.47a1.465 1.465 0 00.045-1.8 8.782 8.782 0 01-1.18-2.18c-.232-.632-.86-1-1.53-.931l-3.174.323-.239-2.347 3.175-.323c.669-.068 1.21-.555 1.31-1.22a8.702 8.702 0 01.717-2.361 1.474 1.474 0 00-.408-1.76L6.777 9.829 8.2 8.08l2.47 2.016a1.465 1.465 0 001.799.045 8.786 8.786 0 012.181-1.18c.631-.232.999-.86.93-1.53l-.322-3.174 2.346-.239.323 3.175c.069.669.555 1.21 1.22 1.31a8.703 8.703 0 012.362.717c.61.282 1.335.114 1.76-.407l2.015-2.472.874.712a1.474 1.474 0 001.866-2.286l-2.013-1.644a1.466 1.466 0 00-2.068.21l-2.249 2.774c-.318-.11-.638-.207-.943-.292l-.363-3.562c-.082-.81-.858-1.395-1.668-1.312l-5.176.527c-.81.082-1.451.811-1.369 1.62z" fill="#fff"/><path d="M22.206 14.237c.514-.631.42-1.56-.211-2.075a6.685 6.685 0 00-9.395.957 6.685 6.685 0 00.957 9.395 1.475 1.475 0 001.863-2.286 3.733 3.733 0 01-.534-5.246 3.733 3.733 0 015.246-.534c.631.514 1.56.42 2.074-.211z" fill="#fff"/></svg>