<svg width="30" height="30" fill="none" xmlns="http://www.w3.org/2000/svg"><path d="M19.65 15.387a4.267 4.267 0 00-4.262 4.262 4.267 4.267 0 004.262 4.262 4.267 4.267 0 004.262-4.262 4.267 4.267 0 00-4.262-4.262zm0 6.642a2.383 2.383 0 01-2.38-2.38 2.383 2.383 0 012.38-2.38 2.383 2.383 0 012.38 2.38 2.383 2.383 0 01-2.38 2.38z" fill="#00A82D"/><path d="M29.058 17.015h-2.285a10.235 10.235 0 00-.247-.58l1.616-1.6a.942.942 0 00.001-1.33l-2.347-2.349a.934.934 0 00-1.325 0l-1.607 1.616a10.238 10.238 0 00-.58-.247V10.24c0-.52-.455-.94-.974-.94h-3.321c-.52 0-.974.42-.974.94v2.285a9.968 9.968 0 00-.58.247l-1.6-1.616a.941.941 0 00-1.33 0l-2.349 2.346a.934.934 0 000 1.325l1.616 1.608c-.09.195-.173.391-.247.58H10.24c-.52 0-.94.454-.94.974v3.32c0 .52.42.975.94.975h2.285c.074.188.156.384.247.58l-1.616 1.599a.941.941 0 000 1.33l2.346 2.349a.934.934 0 001.325 0l1.608-1.616c.195.09.391.174.58.247v2.285c0 .52.454.941.974.941h3.32c.52 0 .975-.421.975-.94v-2.286c.188-.073.384-.156.58-.247l1.599 1.616a.941.941 0 001.33.001l2.349-2.347a.934.934 0 000-1.325l-1.616-1.607c.09-.196.174-.392.247-.58h2.285c.52 0 .941-.455.941-.974v-3.321c0-.52-.421-.974-.94-.974zm-.94 3.387h-2.036a.926.926 0 00-.912.69 5.549 5.549 0 01-.609 1.452.94.94 0 00.145 1.144l1.44 1.44-1.016 1.018-1.438-1.44a.935.935 0 00-1.14-.145c-.46.272-.946.477-1.46.61a.926.926 0 00-.69.91v2.036h-1.506v-2.035a.926.926 0 00-.69-.912 5.546 5.546 0 01-1.452-.609.941.941 0 00-1.144.145l-1.44 1.44-1.017-1.016 1.44-1.438a.935.935 0 00.145-1.14 5.604 5.604 0 01-.61-1.46.926.926 0 00-.911-.69H11.18v-1.506h2.036a.924.924 0 00.91-.69 5.55 5.55 0 01.61-1.452.94.94 0 00-.145-1.144l-1.44-1.44 1.016-1.018 1.438 1.44a.935.935 0 001.14.146c.46-.273.946-.478 1.46-.61a.926.926 0 00.69-.911V11.18h1.506v2.036c0 .429.274.804.69.91.514.133.992.338 1.452.61a.94.94 0 001.144-.145l1.44-1.44 1.018 1.016-1.44 1.438a.935.935 0 00-.145 1.14c.272.46.477.946.61 1.46.107.416.481.69.91.69h2.036v1.506zM7.772 1.972l.232 2.274c-.18.092-.368.194-.553.304L5.697 3.104a.942.942 0 00-1.324.133L2.274 5.81a.936.936 0 00.135 1.32l1.77 1.436c-.07.203-.133.407-.187.602l-2.273.231c-.517.053-.89.548-.838 1.065l.337 3.303c.052.517.517.927 1.034.874l2.274-.231c.092.18.194.367.304.552l-1.445 1.754a.941.941 0 00.135 1.324l1.287 1.05a.941.941 0 001.189-1.458l-.558-.454 1.287-1.576a.935.935 0 00.028-1.148A5.605 5.605 0 016 13.06a.926.926 0 00-.976-.594l-2.026.207-.153-1.498 2.027-.206a.926.926 0 00.836-.779c.08-.529.235-1.025.457-1.507a.941.941 0 00-.26-1.123L4.327 6.273l.908-1.115L6.81 6.445a.935.935 0 001.148.028 5.617 5.617 0 011.393-.753.926.926 0 00.594-.976l-.207-2.026 1.498-.153.207 2.026a.926.926 0 00.778.837 5.54 5.54 0 011.508.458.94.94 0 001.123-.26l1.286-1.578.558.454a.941.941 0 001.19-1.459l-1.284-1.049a.936.936 0 00-1.32.134l-1.435 1.77a10.29 10.29 0 00-.603-.186l-.231-2.274c-.053-.516-.547-.89-1.064-.837L8.646.937c-.517.053-.927.518-.874 1.035z" fill="#00A82D"/><path d="M14.174 9.087a.941.941 0 00-.135-1.324 4.267 4.267 0 00-5.996.61 4.267 4.267 0 00.61 5.997.94.94 0 001.19-1.459 2.383 2.383 0 01-.341-3.348 2.383 2.383 0 013.348-.341.94.94 0 001.324-.135z" fill="#00A82D"/></svg>