<svg width="52" height="47" fill="none" xmlns="http://www.w3.org/2000/svg"><path d="M25.128 1.17C11.51 1.17 1.17 10.235 1.17 21.405a15.023 15.023 0 006.334 12.88v0a18.254 18.254 0 01-.48 9.508 1.58 1.58 0 002.038 1.943l12.4-4.39a27.24 27.24 0 003.817.292c13.617 0 24.589-9.063 24.589-20.233S38.745 1.171 25.128 1.171zm-3.876 40.175a27.738 27.738 0 01-7.962-2.858" stroke="#fff" stroke-width="2" stroke-linecap="round" stroke-linejoin="round"/><path d="M15.034 24.87a2.775 2.775 0 100-5.55 2.775 2.775 0 000 5.55zm10.866 0a2.775 2.775 0 100-5.55 2.775 2.775 0 000 5.55zm10.866 0a2.775 2.775 0 100-5.55 2.775 2.775 0 000 5.55z" fill="#fff"/></svg>