<svg width="32" height="32" fill="none" xmlns="http://www.w3.org/2000/svg"><path d="M8.241 27.857a4.409 4.409 0 01-4.21-3.874l-.023-.259L4 23.467v-2.1a1.15 1.15 0 01.837-1.107l.152-.035.163-.013h2.635V5.182a1.153 1.153 0 01.4-.871l.133-.099.148-.079a1.149 1.149 0 01.952 0l.15.082.134.101 2.215 1.96 2.222-1.981a1.154 1.154 0 011.079-.252l.156.056.17.093.133.101 2.214 1.982 2.216-1.98a1.141 1.141 0 011.091-.246l.161.059.155.084.133.101 2.218 1.984 2.216-1.958A1.153 1.153 0 0127 4.04l.163.033.158.06a1.14 1.14 0 01.627.718l.04.166.012.166v18.284a4.4 4.4 0 01-4.145 4.388h-.107l-15.507.002zm1.852-20.114v12.469H20.36a1.15 1.15 0 011.107.837l.034.154.012.162v2.102a2.089 2.089 0 004.143.389l.027-.196.009-.193V7.743l-1.067.942a1.143 1.143 0 01-.757.287c-.168 0-.335-.037-.488-.107l-.155-.084-.133-.101-2.215-1.98-2.21 1.983a1.141 1.141 0 01-1.248.184l-.155-.083-.133-.101L14.909 6.7l-2.214 1.983c-.21.187-.48.29-.762.29-.166 0-.33-.035-.482-.104l-.155-.081-.133-.101-1.07-.944zM6.307 22.519v.948a2.084 2.084 0 001.698 2.054l.198.027.192.008h11.338l-.022-.04a4.38 4.38 0 01-.46-1.407l-.034-.301-.014-.343v-.942l-12.896-.004zm16.266-4.504h-9.328a1.152 1.152 0 01-.316-2.267l.152-.035.163-.012h9.327a1.152 1.152 0 01.317 2.267l-.153.035-.162.012zM18.553 14h-5.308a1.152 1.152 0 01-.312-2.267l.152-.034.163-.012h5.31a1.152 1.152 0 01.317 2.26l-.154.034-.168.019z" fill="#995DD4"/></svg>