<svg width="50" height="50" fill="none" xmlns="http://www.w3.org/2000/svg"><path d="M30.168 13.73H8.626v1.958h21.542v-1.959zm0 5.874H8.626v1.959h21.542v-1.959zm-4.896 5.876H8.626v1.958h16.646v-1.959zm-4.896 5.874H8.626v1.959h11.75v-1.959zm0 5.876H8.626v1.958h11.75v-1.959z" fill="#fff"/><path d="M38.001 18.22V8.428L30.573 1H.793v47h37.208V30.78l10.197-10.197-6.28-6.28-3.917 3.917zm-.979 3.748l3.511 3.511-11.75 11.75h-3.51v-3.511l11.75-11.75zM31.147 4.343l3.511 3.511h-3.51V4.343zm4.896 41.699H2.751V2.958H29.19v6.854h6.854v10.366l-12.73 12.73v6.28h6.281l6.449-6.45v13.304zm5.875-21.947l-3.511-3.512 3.511-3.511 3.511 3.511-3.511 3.512z" fill="#fff"/></svg>