<svg width="47" height="47" fill="none" xmlns="http://www.w3.org/2000/svg"><path d="M23.5 11.75c.897 0 1.469.435 1.469.734a.735.735 0 001.468 0c0-1.043-.924-1.888-2.203-2.13v-.807a.734.734 0 00-1.468 0v.808c-1.279.24-2.203 1.084-2.203 2.13 0 1.235 1.29 2.203 2.937 2.203.897 0 1.469.434 1.469.734s-.572.734-1.469.734c-.897 0-1.469-.434-1.469-.734a.735.735 0 00-1.468 0c0 1.043.924 1.888 2.203 2.13v.807a.735.735 0 001.468 0v-.807c1.279-.24 2.203-1.085 2.203-2.13 0-1.235-1.29-2.203-2.937-2.203-.897 0-1.469-.435-1.469-.735s.572-.734 1.469-.734zm-2.937-4.406h5.875a.734.734 0 100-1.469h-5.875a.734.734 0 100 1.469zm0 14.687h5.875a.735.735 0 000-1.468h-5.875a.734.734 0 000 1.468zm-5.875 8.813h17.624a.735.735 0 000-1.469H14.689a.734.734 0 000 1.469zm0-2.938h17.624a.735.735 0 000-1.468H14.689a.734.734 0 000 1.468zm14.687 4.407H14.687a.734.734 0 000 1.468h14.688a.735.735 0 000-1.468zm0 2.937H14.687a.734.734 0 000 1.469h14.688a.735.735 0 000-1.469zm0-13.219h.734a.735.735 0 000-1.468h-.734a.734.734 0 000 1.468zm-12.485 0h.735a.735.735 0 000-1.468h-.734a.735.735 0 000 1.468zM29.375 7.344h.734a.735.735 0 000-1.469h-.734a.734.734 0 100 1.469zm-12.485 0h.735a.734.734 0 100-1.469h-.734a.735.735 0 000 1.469z" fill="#fff"/><path d="M38.922 30.88V17.626h5.14a.734.734 0 00.735-.734V5.14a3.672 3.672 0 00-3.672-3.672H11.75A3.672 3.672 0 008.078 5.14v39.656a.726.726 0 00.455.675.614.614 0 00.28.06.74.74 0 00.52-.214l2.417-2.423 2.416 2.423a.74.74 0 001.043 0l2.416-2.423 2.416 2.423a.74.74 0 001.043 0l2.416-2.423 2.416 2.423a.74.74 0 001.043 0l2.416-2.423 2.416 2.423a.74.74 0 001.043 0l1.13-1.13a7.344 7.344 0 104.958-13.308zm0-25.74a2.203 2.203 0 114.406 0v11.016h-4.406V5.141zm-6.61 38.621l-2.416-2.423a.74.74 0 00-1.042 0l-2.416 2.423-2.417-2.423a.74.74 0 00-1.042 0l-2.416 2.423-2.417-2.423a.74.74 0 00-1.042 0l-2.416 2.423-2.417-2.423a.74.74 0 00-1.042 0l-1.682 1.689V5.141a2.21 2.21 0 012.203-2.204h26.46a3.616 3.616 0 00-.757 2.204v25.74a7.328 7.328 0 00-4.597 12.337l-.544.543zm5.876.301a5.876 5.876 0 115.874-5.874 5.883 5.883 0 01-5.874 5.874z" fill="#fff"/><path d="M42.127 35.717a.734.734 0 00-1.038 0l-3.636 3.635-1.558-1.558a.734.734 0 00-1.038 1.038l2.077 2.078a.735.735 0 001.038 0l4.155-4.154a.735.735 0 000-1.039z" fill="#fff"/></svg>