<svg width="24" height="24" viewBox="0 0 24 24" fill="none" xmlns="http://www.w3.org/2000/svg">
<path d="M2.85805 2.87697L15.428 1.08197C15.499 1.07179 15.5713 1.07699 15.64 1.0972C15.7088 1.11741 15.7724 1.15216 15.8266 1.1991C15.8807 1.24605 15.9241 1.30408 15.9539 1.36928C15.9837 1.43447 15.9991 1.5053 15.999 1.57697V22.423C15.999 22.4945 15.9837 22.5653 15.954 22.6304C15.9243 22.6955 15.8809 22.7535 15.8269 22.8004C15.7729 22.8473 15.7094 22.8821 15.6407 22.9024C15.5721 22.9227 15.4999 22.928 15.429 22.918L2.85705 21.123C2.61867 21.089 2.40054 20.9702 2.24274 20.7883C2.08493 20.6065 1.99805 20.3738 1.99805 20.133V3.86697C1.99805 3.62618 2.08493 3.39348 2.24274 3.21161C2.40054 3.02975 2.61867 2.91092 2.85705 2.87697H2.85805ZM3.99905 4.73497V19.265L13.999 20.694V3.30597L3.99905 4.73497ZM16.999 19H19.999V4.99997H16.999V2.99997H20.999C21.2643 2.99997 21.5186 3.10533 21.7062 3.29286C21.8937 3.4804 21.999 3.73475 21.999 3.99997V20C21.999 20.2652 21.8937 20.5195 21.7062 20.7071C21.5186 20.8946 21.2643 21 20.999 21H16.999V19ZM10.199 12L12.999 16H10.599L8.99905 13.714L7.39905 16H4.99905L7.79905 12L4.99905 7.99997H7.39905L8.99905 10.286L10.599 7.99997H12.999L10.199 12Z" fill="#61D904"/>
</svg>
