<svg width="24" height="24" viewBox="0 0 24 24" fill="none" xmlns="http://www.w3.org/2000/svg">
<path d="M12.7599 19.94C11.72 20.9149 10.3417 21.4472 8.91653 21.4242C7.49131 21.4012 6.13089 20.8248 5.12298 19.8169C4.11507 18.809 3.53868 17.4486 3.51571 16.0234C3.49274 14.5982 4.02499 13.2199 4.9999 12.18L13.7599 3.43002C14.2807 2.91336 14.9425 2.5622 15.6623 2.4207C16.3821 2.2792 17.1277 2.35367 17.8053 2.63475C18.4829 2.91583 19.0622 3.39097 19.4705 4.00043C19.8788 4.60989 20.0978 5.32645 20.0999 6.06002C20.0994 6.54784 20.0018 7.03069 19.813 7.48047C19.6241 7.93026 19.3478 8.33801 18.9999 8.68002L10.6699 17C10.4095 17.2076 10.0819 17.3124 9.74935 17.2946C9.41678 17.2767 9.10233 17.1375 8.8656 16.9032C8.62888 16.6689 8.48634 16.356 8.46501 16.0236C8.44369 15.6912 8.54505 15.3626 8.7499 15.1L17.0899 6.76002L15.6699 5.35002L7.3299 13.69C6.72802 14.3256 6.39792 15.1709 6.40982 16.0461C6.42173 16.9213 6.7747 17.7574 7.39363 18.3763C8.01257 18.9952 8.8486 19.3482 9.72382 19.3601C10.599 19.372 11.4444 19.0419 12.0799 18.44L20.4299 10.1C21.504 9.02722 22.108 7.57166 22.1089 6.05355C22.1099 4.53545 21.5077 3.07915 20.4349 2.00502C19.3621 0.930892 17.9065 0.326928 16.3884 0.32599C14.8703 0.325052 13.414 0.927218 12.3399 2.00002L3.5799 10.77C2.22518 12.1844 1.47836 14.0732 1.49946 16.0316C1.52056 17.99 2.30791 19.8622 3.69279 21.2471C5.07768 22.632 6.94991 23.4194 8.90832 23.4405C10.8667 23.4616 12.7555 22.7147 14.1699 21.36L22.0899 13.43L20.6799 12L12.7599 19.94Z" fill="black"/>
</svg>
