<svg width="50" height="28" viewBox="0 0 50 28" fill="none" xmlns="http://www.w3.org/2000/svg">
<path d="M23.6709 19.2139C22.6254 16.7643 20.6887 14.803 18.2525 13.7266C18.498 13.5384 18.731 13.3344 18.9498 13.1157C19.9564 12.1084 20.6316 10.818 20.8855 9.41681C21.1393 8.01559 20.9595 6.57029 20.3702 5.27393C19.7809 3.97757 18.8101 2.89187 17.5875 2.16184C16.3648 1.4318 14.9485 1.09218 13.5278 1.18834C12.107 1.28449 10.7494 1.81185 9.63624 2.69997C8.5231 3.58808 7.70744 4.79469 7.29818 6.15863C6.88892 7.52257 6.90554 8.97891 7.34584 10.3331C7.78614 11.6874 8.62915 12.8751 9.76227 13.7375C7.31579 14.835 5.37366 16.8154 4.32415 19.2828C3.77904 20.5637 3.49871 21.9415 3.5 23.3335V24.5C3.50073 25.1187 3.74681 25.7118 4.18427 26.1493C4.62174 26.5867 5.21486 26.8328 5.83352 26.8335H22.1665C22.7852 26.8328 23.3783 26.5867 23.8157 26.1493C24.2532 25.7118 24.4993 25.1187 24.5 24.5V23.2931C24.5026 21.8913 24.2205 20.5035 23.6709 19.2139ZM10.7002 4.86721C11.4637 4.10377 12.4684 3.6287 13.5429 3.52295C14.6175 3.4172 15.6955 3.68731 16.5932 4.28726C17.4909 4.88721 18.1528 5.77988 18.4662 6.81316C18.7795 7.84644 18.7249 8.95641 18.3116 9.95393C17.8983 10.9514 17.1519 11.7748 16.1996 12.2837C15.2473 12.7926 14.148 12.9556 13.0891 12.7448C12.0301 12.5341 11.0769 11.9626 10.392 11.1279C9.70714 10.2932 9.33286 9.2468 9.33297 8.16705C9.33145 7.55396 9.4515 6.94665 9.68617 6.38024C9.92084 5.81384 10.2655 5.29958 10.7002 4.86721ZM22.1665 24.5H5.83352V23.3335C5.83259 22.2545 6.04986 21.1863 6.47227 20.1934C7.30481 18.2393 8.85355 16.6778 10.8008 15.8293C11.7934 15.3982 12.8631 15.1729 13.9453 15.1671C15.5572 15.154 17.137 15.6181 18.4858 16.5008C19.8346 17.3835 20.8922 18.6454 21.5256 20.1278C21.9518 21.1285 22.1704 22.2053 22.1681 23.2931L22.1665 24.5Z" fill="black"/>
<path d="M29 4H50" stroke="black" stroke-width="2" stroke-miterlimit="10"/>
<path d="M29 14H50" stroke="black" stroke-width="2" stroke-miterlimit="10"/>
<path d="M29 25H50" stroke="black" stroke-width="2" stroke-miterlimit="10"/>
</svg>
