<svg width="32" height="32" viewBox="0 0 32 32" fill="none" xmlns="http://www.w3.org/2000/svg">
<path fill-rule="evenodd" clip-rule="evenodd" d="M16 4C9.37306 4 4 9.37256 4 16C4 22.6274 9.37306 28 16 28C18.2432 28 20.3399 27.3853 22.1348 26.3157C22.1963 26.2791 22.2607 26.2498 22.3271 26.2273C22.3789 26.2097 22.4326 26.1966 22.4863 26.1877C22.5586 26.1758 22.6328 26.1719 22.7061 26.1763C22.7871 26.1811 22.8672 26.1958 22.9463 26.2207L27.7217 27.7214L26.2207 22.9466C26.1357 22.6748 26.1699 22.3794 26.3154 22.1348C27.3857 20.3403 28 18.2434 28 16C28 9.37256 22.6269 4 16 4ZM2 16C2 8.26806 8.26756 2 16 2C23.7324 2 30 8.26806 30 16C30 18.4517 29.3691 20.7588 28.2598 22.7646L29.917 28.0359C30.2803 29.1926 29.1924 30.2803 28.0361 29.9167L22.7646 28.26C20.7588 29.3689 18.4521 30 16 30C8.26756 30 2 23.7319 2 16ZM17 14.5V22C17 22.2583 16.9024 22.4939 16.7412 22.6714C16.6016 22.8262 16.4131 22.9368 16.2002 22.98C16.1357 22.9932 16.0684 23 16 23C15.7099 23 15.4493 22.8769 15.2666 22.6804C15.1016 22.5019 15 22.2627 15 22V14.5C15 13.9478 15.4473 13.5 16 13.5C16.5527 13.5 17 13.9478 17 14.5ZM16 12C16.8281 12 17.5 11.3284 17.5 10.5C17.5 9.91775 17.168 9.41281 16.6836 9.16431C16.4785 9.05931 16.2461 9 16 9C15.1719 9 14.5 9.67163 14.5 10.5C14.5 11.3284 15.1719 12 16 12Z" fill="black"/>
</svg>
