<svg width="21" height="26" viewBox="0 0 21 26" fill="none" xmlns="http://www.w3.org/2000/svg">
<path d="M20 10.4496V21.806C20 23.067 18.9778 24.0897 17.7164 24.0897H3.28363C2.02216 24.0897 1 23.067 1 21.806V3.28363C1 2.02268 2.02216 1 3.28363 1H10.3344C10.4315 1 10.5104 1.07891 10.5104 1.17598V8.03467C10.5104 9.29563 11.5325 10.3183 12.794 10.3183H19.8687C19.9034 10.3183 19.9367 10.3323 19.9616 10.3567C19.986 10.3816 20 10.4149 20 10.4496Z" stroke="#A40303" stroke-width="2" stroke-miterlimit="10"/>
<path d="M19.9226 10.3183H12.8692C11.5657 10.3183 10.5098 9.26292 10.5098 7.95888V1H10.6042L19.9226 10.3183Z" stroke="#A40303" stroke-width="2" stroke-miterlimit="10" stroke-linejoin="bevel"/>
<path d="M8.52775 17.4153C8.43534 17.5866 8.28999 17.7247 8.09272 17.8295C7.89545 17.9344 7.64627 17.9868 7.3457 17.9868H6.73209V19.3921H5.99805V15.7323H7.3457C7.62862 15.7323 7.87001 15.7811 8.06936 15.8792C8.2687 15.9773 8.41821 16.1117 8.51788 16.283C8.61755 16.4544 8.66739 16.6485 8.66739 16.865C8.66687 17.0607 8.62015 17.2439 8.52775 17.4153ZM7.76463 17.2554C7.86223 17.163 7.91154 17.0327 7.91154 16.865C7.91154 16.5083 7.7122 16.3303 7.31403 16.3303H6.73209V17.3945H7.31403C7.51649 17.3945 7.66704 17.3483 7.76463 17.2554Z" fill="#8F0A0A"/>
<path d="M11.4796 15.9581C11.7713 16.1086 11.9966 16.3225 12.156 16.6002C12.3148 16.878 12.3943 17.2003 12.3943 17.5674C12.3943 17.9344 12.3148 18.2552 12.156 18.5293C11.9971 18.8039 11.7713 19.0162 11.4796 19.1663C11.1878 19.3168 10.8493 19.3916 10.4652 19.3916H9.18555V15.7323H10.4647C10.8493 15.7323 11.1873 15.8075 11.4796 15.9581ZM11.3301 18.4535C11.5398 18.2438 11.6446 17.9484 11.6446 17.5674C11.6446 17.1863 11.5398 16.8883 11.3301 16.6734C11.1203 16.4585 10.8234 16.3511 10.4387 16.3511H9.91959V18.7681H10.4387C10.8234 18.7681 11.1203 18.6632 11.3301 18.4535Z" fill="#8F0A0A"/>
<path d="M15.2041 15.7323V16.3246H13.6784V17.2632H14.8475V17.8451H13.6784V19.3916H12.9443V15.7323H15.2041Z" fill="#8F0A0A"/>
</svg>
