<svg width="59" height="38" viewBox="0 0 59 38" fill="none" xmlns="http://www.w3.org/2000/svg">
<path d="M1 1H36.3333V32.1765H17.6275" stroke="white" stroke-width="2" stroke-miterlimit="10" stroke-linecap="round" stroke-linejoin="round"/>
<path d="M46.7252 36.3335C49.021 36.3335 50.8821 34.4724 50.8821 32.1766C50.8821 29.8809 49.021 28.0198 46.7252 28.0198C44.4295 28.0198 42.5684 29.8809 42.5684 32.1766C42.5684 34.4724 44.4295 36.3335 46.7252 36.3335Z" stroke="white" stroke-width="2" stroke-miterlimit="10" stroke-linecap="round" stroke-linejoin="round"/>
<path d="M13.4713 36.3335C15.7671 36.3335 17.6282 34.4724 17.6282 32.1766C17.6282 29.8809 15.7671 28.0198 13.4713 28.0198C11.1755 28.0198 9.31445 29.8809 9.31445 32.1766C9.31445 34.4724 11.1755 36.3335 13.4713 36.3335Z" stroke="white" stroke-width="2" stroke-miterlimit="10" stroke-linecap="round" stroke-linejoin="round"/>
<path d="M36.333 32.1765V9.31372H48.8036L57.1173 19.7059V32.1765H50.882" stroke="white" stroke-width="2" stroke-miterlimit="10" stroke-linecap="round" stroke-linejoin="round"/>
<path d="M5.15625 9.31372H23.8621" stroke="white" stroke-width="2" stroke-miterlimit="10" stroke-linecap="round" stroke-linejoin="round"/>
<path d="M1 17.6274H19.7059" stroke="white" stroke-width="2" stroke-miterlimit="10" stroke-linecap="round" stroke-linejoin="round"/>
</svg>
