<svg width="47" height="48" viewBox="0 0 47 48" fill="none" xmlns="http://www.w3.org/2000/svg">
<path d="M30.7855 24.108C27.1036 24.108 24.1084 27.1033 24.1084 30.7852C24.1084 34.4671 27.1036 37.4623 30.7855 37.4623C34.4674 37.4623 37.4627 34.4671 37.4627 30.7852C37.4627 27.1033 34.4674 24.108 30.7855 24.108ZM30.7855 34.5139C28.7295 34.5139 27.0567 32.8412 27.0567 30.7852C27.0567 28.7291 28.7295 27.0564 30.7855 27.0564C32.8416 27.0564 34.5143 28.7291 34.5143 30.7852C34.5143 32.8412 32.8416 34.5139 30.7855 34.5139Z" fill="white"/>
<path d="M45.526 26.6576H41.9461C41.8304 26.3627 41.7011 26.0552 41.5586 25.7492L44.0908 23.2432C44.667 22.6667 44.6663 21.7331 44.092 21.1583L40.4146 17.4792C39.8456 16.9105 38.9222 16.8968 38.3394 17.4792L35.8205 20.0111C35.5145 19.8686 35.207 19.7391 34.9121 19.6234V16.0435C34.9121 15.2295 34.2001 14.5693 33.3859 14.5693H28.1828C27.3686 14.5693 26.6566 15.2295 26.6566 16.0435V19.6234C26.3618 19.7391 26.0542 19.8684 25.7482 20.011L23.2423 17.4788C22.6657 16.9025 21.7321 16.9032 21.1573 17.4776L17.4782 21.1549C16.9095 21.7239 16.8958 22.6474 17.4782 23.2301L20.0101 25.749C19.8676 26.0551 19.7381 26.3626 19.6224 26.6574H16.0425C15.2285 26.6574 14.5684 27.3694 14.5684 28.1836V33.3867C14.5684 34.2008 15.2285 34.9129 16.0425 34.9129H19.6224C19.7381 35.2078 19.8674 35.5153 20.01 35.8213L17.4778 38.3273C16.9015 38.9038 16.9023 39.8374 17.4766 40.4122L21.1539 44.0913C21.723 44.66 22.6464 44.6738 23.2291 44.0913L25.7481 41.5594C26.0541 41.702 26.3616 41.8314 26.6564 41.9471V45.527C26.6564 46.341 27.3685 47.0012 28.1827 47.0012H33.3858C34.1998 47.0012 34.912 46.341 34.912 45.527V41.9471C35.2068 41.8314 35.5143 41.7021 35.8204 41.5596L38.3263 44.0918C38.9029 44.668 39.8365 44.6673 40.4112 44.0929L44.0903 40.4156C44.6591 39.8466 44.6728 38.9231 44.0903 38.3404L41.5584 35.8215C41.701 35.5154 41.8304 35.2079 41.9461 34.9131H45.526C46.3401 34.9131 47.0002 34.2011 47.0002 33.3869V28.1838C47.0002 27.3696 46.3401 26.6576 45.526 26.6576ZM44.0519 31.9646H40.8623C40.1897 31.9646 39.6025 32.3939 39.4347 33.0452C39.2275 33.8511 38.9064 34.5994 38.4799 35.321C38.1379 35.9002 38.2315 36.6376 38.7072 37.1132L40.9645 39.3697L39.3719 40.9638L37.1188 38.7075C36.6429 38.2319 35.9123 38.1386 35.3331 38.4806C34.6114 38.9071 33.8501 39.2283 33.0443 39.4357C32.393 39.6035 31.9638 40.1908 31.9638 40.8635V44.0528H29.6051V40.8633C29.6051 40.1906 29.1758 39.6035 28.5245 39.4357C27.7186 39.2284 26.9703 38.9074 26.2487 38.4809C25.6699 38.139 24.9324 38.2325 24.4565 38.7082L22.2 40.9655L20.6058 39.3729L22.8624 37.1196C23.3381 36.6439 23.4312 35.913 23.0892 35.334C22.6628 34.6122 22.3415 33.851 22.1341 33.0452C21.9664 32.3939 21.379 31.9646 20.7064 31.9646H17.5167V29.6059H20.7062C21.3789 29.6059 21.9661 29.1766 22.1338 28.5254C22.3411 27.7194 22.6622 26.9711 23.0886 26.2495C23.4307 25.6703 23.337 24.9329 22.8613 24.4574L20.6041 22.2008L22.1966 20.6067L24.4499 22.8632C24.9258 23.3389 25.6567 23.4322 26.2356 23.0901C26.9573 22.6636 27.7186 22.3424 28.5244 22.135C29.1757 21.9672 29.6049 21.3799 29.6049 20.7072V17.5177H31.9636V20.7072C31.9636 21.3799 32.3929 21.967 33.0442 22.1348C33.8501 22.3421 34.5984 22.6631 35.32 23.0896C35.8988 23.4315 36.6363 23.338 37.1122 22.8623L39.3687 20.605L40.9629 22.1976L38.7065 24.4507C38.2308 24.9264 38.1376 25.6573 38.4796 26.2364C38.9061 26.9582 39.2273 27.7194 39.4347 28.5252C39.6025 29.1765 40.1898 29.6058 40.8625 29.6058H44.0519V31.9646Z" fill="white"/>
<path d="M12.1751 3.08995L12.5378 6.65201C12.2562 6.79686 11.9624 6.95598 11.6726 7.12833L8.9237 4.86324C8.28543 4.34307 7.35656 4.44995 6.84925 5.07194L3.56158 9.1017C3.04721 9.73286 3.14107 10.6548 3.77212 11.1694L6.5455 13.4184C6.43509 13.737 6.33815 14.0568 6.25289 14.3619L2.69083 14.7246C1.88083 14.807 1.29636 15.5823 1.37884 16.3923L1.90587 21.5685C1.98833 22.3783 2.71707 23.02 3.52706 22.9375L7.08927 22.5748C7.23412 22.8564 7.3937 23.1503 7.56605 23.4401L5.3014 26.189C4.78715 26.82 4.88168 27.7483 5.51259 28.2632L7.52897 29.9071C8.15998 30.4215 9.08867 30.3274 9.60307 29.6964C10.1176 29.0654 10.0232 28.1378 9.39195 27.6229L8.51838 26.9123L10.534 24.4433C10.9589 23.9217 10.9779 23.1851 10.5788 22.6439C10.0854 21.9743 9.6895 21.2488 9.39962 20.4624C9.16704 19.8314 8.53909 19.4636 7.86988 19.5317L4.695 19.855L4.45608 17.5084L7.63081 17.1852C8.30002 17.117 8.84079 16.6302 8.94142 15.9653C9.06702 15.1366 9.30956 14.3592 9.65793 13.6038C9.93936 12.993 9.77186 12.2691 9.25024 11.8439L6.77717 9.82874L8.20019 8.08143L10.6692 10.097C11.1906 10.522 11.9269 10.5408 12.4685 10.1419C13.1387 9.64822 13.8641 9.25221 14.6501 8.96252C15.2813 8.72976 15.649 8.10197 15.5809 7.43262L15.2576 4.25789L17.6042 4.01896L17.9274 7.19355C17.9956 7.86276 18.4823 8.40369 19.1475 8.50444C19.9759 8.62992 20.7532 8.87277 21.509 9.22124C22.1198 9.50282 22.8438 9.33545 23.2688 8.81401L25.2841 6.34181L26.1578 7.05406C26.7888 7.56845 27.7175 7.47389 28.232 6.84286C28.747 6.21104 28.6497 5.27853 28.024 4.76834L26.0107 3.12419C25.3797 2.6098 24.4575 2.7037 23.9431 3.33471L21.6942 6.10824C21.3756 5.99783 21.0557 5.90074 20.7507 5.81563L20.3881 2.25372C20.3056 1.44387 19.5304 0.859251 18.7204 0.941724L13.5442 1.46876C12.7342 1.55123 12.0927 2.2801 12.1751 3.08995Z" fill="white"/>
<path d="M22.206 14.2367C22.7204 13.6057 22.6259 12.6772 21.9948 12.1625C19.1411 9.83618 14.9267 10.2653 12.6004 13.119C10.2741 15.9727 10.7032 20.1871 13.557 22.5136C14.188 23.0279 15.1166 22.9334 15.6312 22.3024C16.1455 21.6712 16.051 20.7428 15.42 20.2282C13.8262 18.9292 13.5866 16.5755 14.8858 14.982C16.1849 13.3884 18.5383 13.1488 20.132 14.4479C20.763 14.9624 21.6916 14.8678 22.206 14.2367Z" fill="white"/>
</svg>
