<svg width="32" height="32" viewBox="0 0 32 32" fill="none" xmlns="http://www.w3.org/2000/svg">
<path d="M8.24133 27.8573C7.19337 27.8177 6.19383 27.4059 5.42212 26.6957C4.65041 25.9856 4.15708 25.0237 4.03067 23.9827L4.008 23.724L4 23.4667V21.3667C4.00011 21.1163 4.08193 20.8727 4.23307 20.6729C4.38419 20.4732 4.59635 20.3283 4.83733 20.26L4.98933 20.2253L5.152 20.212H7.78667V5.18267C7.78685 5.01713 7.82268 4.85357 7.89169 4.70311C7.96072 4.55264 8.06132 4.4188 8.18667 4.31067L8.32 4.212L8.468 4.13333C8.61412 4.06664 8.77271 4.03164 8.93333 4.03067C9.10103 4.02976 9.26696 4.06476 9.42 4.13333L9.57067 4.21467L9.704 4.316L11.9187 6.276L14.1413 4.29467C14.2856 4.16551 14.4599 4.07473 14.6484 4.03069C14.8369 3.98665 15.0335 3.99077 15.22 4.04267L15.376 4.09867L15.5453 4.192L15.6787 4.29333L17.8933 6.27467L20.1093 4.29467C20.3181 4.10593 20.5892 4.001 20.8707 4C20.9823 4.00071 21.0931 4.01732 21.2 4.04933L21.3613 4.108L21.516 4.192L21.6493 4.29333L23.8667 6.27733L26.0827 4.31867C26.2067 4.20915 26.3527 4.12759 26.5111 4.07949C26.6693 4.03141 26.836 4.01795 27 4.04L27.1627 4.07333L27.3213 4.13333C27.4713 4.20056 27.6051 4.29949 27.7133 4.42332C27.8215 4.54716 27.9015 4.69295 27.948 4.85067L27.988 5.01733L28 5.18267V23.4667C27.9988 24.5888 27.5691 25.668 26.7984 26.4836C26.0279 27.2993 24.9748 27.7897 23.8547 27.8547H23.748L8.24133 27.8573ZM10.0933 7.74267V20.212H20.36C20.6104 20.2121 20.854 20.294 21.0537 20.4451C21.2535 20.5961 21.3984 20.8084 21.4667 21.0493L21.5013 21.2027L21.5133 21.3653V23.4667C21.5125 23.9875 21.7063 24.4899 22.0567 24.8752C22.4069 25.2607 22.8887 25.5012 23.4072 25.55C23.9257 25.5987 24.4437 25.452 24.8597 25.1387C25.2757 24.8253 25.5597 24.3679 25.656 23.856L25.6827 23.66L25.692 23.4667V7.74267L24.6253 8.68533C24.4164 8.87013 24.1469 8.97209 23.868 8.972C23.6996 8.97172 23.5332 8.93535 23.38 8.86533L23.2253 8.78133L23.092 8.68L20.8773 6.7L18.6667 8.68267C18.4573 8.86995 18.1863 8.97344 17.9053 8.97333C17.7373 8.97303 17.5713 8.93665 17.4187 8.86667L17.264 8.784L17.1307 8.68267L14.9093 6.7L12.6947 8.68267C12.4853 8.86995 12.2142 8.97344 11.9333 8.97333C11.7669 8.97325 11.6024 8.9378 11.4507 8.86933L11.296 8.788L11.1627 8.68667L10.0933 7.74267ZM6.30667 22.5187V23.4667C6.30512 23.9536 6.47419 24.4259 6.78448 24.8012C7.09479 25.1765 7.52673 25.4313 8.00533 25.5213L8.20267 25.548L8.39467 25.556H19.7333L19.7107 25.516C19.4787 25.0765 19.3231 24.6009 19.2507 24.1093L19.2173 23.808L19.2027 23.4653V22.5227L6.30667 22.5187ZM22.5733 18.0147H13.2453C12.9629 18.0211 12.688 17.9236 12.4728 17.7405C12.2576 17.5575 12.1171 17.3019 12.0781 17.022C12.0391 16.7423 12.1043 16.4579 12.2612 16.2229C12.4181 15.9881 12.6559 15.8191 12.9293 15.748L13.0813 15.7133L13.244 15.7013H22.5707C22.8532 15.6945 23.1284 15.7919 23.3439 15.9748C23.5593 16.1576 23.7001 16.4133 23.7392 16.6933C23.7784 16.9732 23.7133 17.2577 23.5564 17.4928C23.3995 17.7279 23.1616 17.8969 22.888 17.968L22.7347 18.0027L22.5733 18.0147ZM18.5533 14H13.2453C12.9633 14.0053 12.6891 13.9071 12.4747 13.7237C12.2603 13.5404 12.1207 13.2847 12.0822 13.0053C12.0437 12.7258 12.1091 12.442 12.266 12.2075C12.4229 11.9731 12.6603 11.8044 12.9333 11.7333L13.0853 11.6987L13.248 11.6867H18.5573C18.8355 11.6862 19.1044 11.7863 19.3144 11.9686C19.5244 12.1509 19.6615 12.4031 19.7001 12.6785C19.7388 12.9539 19.6765 13.234 19.5248 13.4671C19.3731 13.7003 19.1421 13.8705 18.8747 13.9467L18.7213 13.9813L18.5533 14Z" fill="#995DD4"/>
</svg>
