<svg width="50" height="50" viewBox="0 0 50 50" fill="none" xmlns="http://www.w3.org/2000/svg">
<path d="M30.1676 13.7292H8.62598V15.6876H30.1676V13.7292Z" fill="white"/>
<path d="M30.1676 19.6042H8.62598V21.5626H30.1676V19.6042Z" fill="white"/>
<path d="M25.2718 25.4792H8.62598V27.4376H25.2718V25.4792Z" fill="white"/>
<path d="M20.376 31.3542H8.62598V33.3126H20.376V31.3542Z" fill="white"/>
<path d="M20.376 37.2292H8.62598V39.1876H20.376V37.2292Z" fill="white"/>
<path d="M38.0013 18.2196V8.42796L30.5733 1H0.792969V48H38.0013V30.7804L48.1983 20.5833L41.918 14.303L38.0013 18.2196ZM37.0221 21.9679L40.5334 25.4792L28.7834 37.2292H25.2721V33.7179L37.0221 21.9679ZM31.1471 4.34288L34.6584 7.85417H31.1471V4.34288ZM36.043 46.0417H2.7513V2.95833H29.1888V9.8125H36.043V20.178L23.3138 32.9071V39.1875H29.5942L36.043 32.7387V46.0417ZM41.918 24.0946L38.4067 20.5833L41.918 17.072L45.4293 20.5833L41.918 24.0946Z" fill="white"/>
</svg>
