<svg width="30" height="30" viewBox="0 0 30 30" fill="none" xmlns="http://www.w3.org/2000/svg">
<path d="M19.6497 15.3873C17.2997 15.3873 15.3879 17.2991 15.3879 19.6491C15.3879 21.9991 17.2997 23.9109 19.6497 23.9109C21.9998 23.9109 23.9115 21.9991 23.9115 19.6491C23.9115 17.2991 21.9998 15.3873 19.6497 15.3873ZM19.6497 22.0291C18.3374 22.0291 17.2698 20.9614 17.2698 19.6491C17.2698 18.3368 18.3374 17.2692 19.6497 17.2692C20.962 17.2692 22.0297 18.3368 22.0297 19.6491C22.0297 20.9614 20.962 22.0291 19.6497 22.0291Z" fill="#00A82D"/>
<path d="M29.0583 17.0146H26.7734C26.6995 16.8264 26.617 16.6301 26.526 16.4348L28.1422 14.8353C28.51 14.4673 28.5095 13.8715 28.143 13.5046L25.7959 11.1564C25.4327 10.7934 24.8433 10.7846 24.4713 11.1564L22.8636 12.7724C22.6683 12.6814 22.472 12.5988 22.2838 12.5249V10.24C22.2838 9.72043 21.8293 9.29909 21.3097 9.29909H17.9887C17.469 9.29909 17.0146 9.72043 17.0146 10.24V12.5249C16.8264 12.5988 16.6301 12.6813 16.4348 12.7723L14.8353 11.1561C14.4673 10.7883 13.8715 10.7887 13.5046 11.1553L11.1563 13.5024C10.7933 13.8656 10.7846 14.455 11.1563 14.827L12.7724 16.4347C12.6814 16.63 12.5988 16.8263 12.5249 17.0145H10.24C9.72041 17.0145 9.29907 17.469 9.29907 17.9886V21.3096C9.29907 21.8292 9.72041 22.2837 10.24 22.2837H12.5249C12.5988 22.4719 12.6813 22.6682 12.7723 22.8635L11.1561 24.463C10.7883 24.831 10.7887 25.4268 11.1553 25.7937L13.5024 28.142C13.8656 28.505 14.455 28.5137 14.8269 28.142L16.4347 26.5259C16.63 26.6169 16.8263 26.6995 17.0145 26.7734V29.0583C17.0145 29.5779 17.4689 29.9992 17.9886 29.9992H21.3096C21.8291 29.9992 22.2837 29.5779 22.2837 29.0583V26.7734C22.4719 26.6995 22.6682 26.617 22.8635 26.526L24.463 28.1422C24.8309 28.51 25.4268 28.5096 25.7937 28.143L28.1419 25.7959C28.5049 25.4327 28.5137 24.8433 28.1419 24.4713L26.5259 22.8636C26.6169 22.6683 26.6995 22.472 26.7734 22.2838H29.0583C29.5779 22.2838 29.9992 21.8294 29.9992 21.3097V17.9887C29.9992 17.4691 29.5779 17.0146 29.0583 17.0146ZM28.1174 20.4019H26.0816C25.6523 20.4019 25.2775 20.6759 25.1704 21.0916C25.0381 21.606 24.8332 22.0836 24.561 22.5442C24.3427 22.9139 24.4025 23.3845 24.7061 23.688L26.1468 25.1283L25.1303 26.1458L23.6923 24.7056C23.3885 24.4021 22.9222 24.3425 22.5525 24.5608C22.0918 24.833 21.606 25.0381 21.0917 25.1704C20.676 25.2775 20.402 25.6524 20.402 26.0817V28.1174H18.8965V26.0816C18.8965 25.6523 18.6225 25.2775 18.2068 25.1704C17.6924 25.0382 17.2148 24.8332 16.7542 24.561C16.3848 24.3428 15.9141 24.4025 15.6104 24.7061L14.1701 26.1468L13.1526 25.1304L14.5928 23.6922C14.8965 23.3885 14.9559 22.922 14.7377 22.5524C14.4654 22.0918 14.2604 21.6059 14.128 21.0916C14.021 20.6759 13.6461 20.4019 13.2168 20.4019H11.1809V18.8964H13.2167C13.646 18.8964 14.0208 18.6224 14.1278 18.2067C14.2601 17.6923 14.4651 17.2147 14.7373 16.7541C14.9556 16.3845 14.8958 15.9138 14.5922 15.6103L13.1515 14.17L14.1679 13.1525L15.6061 14.5928C15.9098 14.8964 16.3764 14.956 16.7459 14.7376C17.2065 14.4654 17.6924 14.2603 18.2067 14.128C18.6224 14.0209 18.8964 13.646 18.8964 13.2167V11.1809H20.4019V13.2167C20.4019 13.646 20.6759 14.0208 21.0916 14.1279C21.606 14.2602 22.0836 14.4651 22.5441 14.7373C22.9136 14.9555 23.3843 14.8958 23.688 14.5922L25.1283 13.1515L26.1458 14.168L24.7056 15.606C24.402 15.9097 24.3425 16.3762 24.5608 16.7458C24.833 17.2064 25.038 17.6923 25.1704 18.2066C25.2775 18.6223 25.6524 18.8963 26.0817 18.8963H28.1174V20.4019Z" fill="#00A82D"/>
<path d="M7.77201 1.97221L8.0035 4.24575C7.82376 4.3382 7.63625 4.43976 7.45129 4.54977L5.69673 3.10404C5.28935 2.77203 4.69648 2.84025 4.37268 3.23725L2.27428 5.8093C1.94597 6.21215 2.00588 6.80057 2.40866 7.12908L4.17881 8.56452C4.10834 8.76785 4.04647 8.972 3.99205 9.1667L1.71851 9.39819C1.20151 9.45083 0.828467 9.94563 0.881107 10.4626L1.2175 13.7664C1.27013 14.2833 1.73525 14.6929 2.25225 14.6402L4.52588 14.4087C4.61833 14.5885 4.72019 14.776 4.83019 14.961L3.38474 16.7155C3.05652 17.1183 3.11685 17.7108 3.51954 18.0394L4.80652 19.0887C5.20928 19.417 5.80203 19.3569 6.13035 18.9542C6.45876 18.5514 6.39848 17.9594 5.9956 17.6308L5.43803 17.1772L6.72453 15.6013C6.99574 15.2684 7.00783 14.7983 6.75314 14.4528C6.43819 14.0254 6.18552 13.5624 6.00049 13.0605C5.85205 12.6577 5.45125 12.4229 5.02412 12.4664L2.9977 12.6728L2.8452 11.175L4.87153 10.9687C5.29866 10.9252 5.64382 10.6145 5.70805 10.1901C5.78821 9.66118 5.94301 9.16496 6.16537 8.68287C6.34499 8.29298 6.23809 7.83097 5.90515 7.55957L4.32668 6.27335L5.23494 5.1581L6.8108 6.4446C7.14362 6.71582 7.61357 6.72783 7.95924 6.47322C8.387 6.15813 8.85004 5.90537 9.35168 5.72047C9.75459 5.57191 9.98929 5.17121 9.94579 4.74399L9.73947 2.71767L11.2372 2.56517L11.4435 4.5914C11.487 5.01853 11.7977 5.36379 12.2222 5.42809C12.7509 5.50818 13.2471 5.66318 13.7295 5.8856C14.1194 6.06532 14.5815 5.9585 14.8527 5.62568L16.139 4.04776L16.6967 4.50236C17.0994 4.83068 17.6921 4.77033 18.0206 4.36757C18.3493 3.96429 18.2872 3.3691 17.8878 3.04347L16.6028 1.99407C16.2001 1.66575 15.6114 1.72568 15.2831 2.12843L13.8477 3.89868C13.6444 3.82821 13.4402 3.76624 13.2455 3.71192L13.014 1.43847C12.9614 0.92157 12.4666 0.548432 11.9496 0.601072L8.64582 0.937461C8.12883 0.990101 7.71938 1.45531 7.77201 1.97221Z" fill="#00A82D"/>
<path d="M14.174 9.0868C14.5023 8.68404 14.4419 8.09141 14.0392 7.76291C12.2177 6.27812 9.52783 6.552 8.04304 8.37343C6.55825 10.1949 6.83213 12.8848 8.65357 14.3696C9.05632 14.698 9.64905 14.6376 9.97746 14.2348C10.3058 13.832 10.2454 13.2395 9.84266 12.911C8.82542 12.0819 8.67246 10.5796 9.50173 9.56252C10.3309 8.54537 11.833 8.39242 12.8502 9.22159C13.2529 9.55 13.8456 9.48965 14.174 9.0868Z" fill="#00A82D"/>
</svg>
