<svg width="47" height="47" viewBox="0 0 47 47" fill="none" xmlns="http://www.w3.org/2000/svg">
<path d="M23.5 11.75C24.3967 11.75 24.9688 12.1848 24.9688 12.4844C24.9688 12.6791 25.0462 12.866 25.1838 13.0037C25.3215 13.1413 25.5084 13.2188 25.7031 13.2188C25.8979 13.2188 26.0847 13.1413 26.2224 13.0037C26.3601 12.866 26.4375 12.6791 26.4375 12.4844C26.4375 11.4408 25.5129 10.5963 24.2344 10.3547V9.54688C24.2344 9.35212 24.157 9.16529 24.0193 9.0276C23.8816 8.8899 23.6948 8.8125 23.5 8.8125C23.3052 8.8125 23.1184 8.8899 22.9807 9.0276C22.843 9.16529 22.7656 9.35212 22.7656 9.54688V10.3547C21.4871 10.5948 20.5625 11.4394 20.5625 12.4844C20.5625 13.7196 21.8528 14.6875 23.5 14.6875C24.3967 14.6875 24.9688 15.1223 24.9688 15.4219C24.9688 15.7215 24.3967 16.1562 23.5 16.1562C22.6033 16.1562 22.0312 15.7215 22.0312 15.4219C22.0312 15.2271 21.9538 15.0403 21.8162 14.9026C21.6785 14.7649 21.4916 14.6875 21.2969 14.6875C21.1021 14.6875 20.9153 14.7649 20.7776 14.9026C20.6399 15.0403 20.5625 15.2271 20.5625 15.4219C20.5625 16.4654 21.4871 17.31 22.7656 17.5516V18.3594C22.7656 18.5541 22.843 18.741 22.9807 18.8787C23.1184 19.0163 23.3052 19.0938 23.5 19.0938C23.6948 19.0938 23.8816 19.0163 24.0193 18.8787C24.157 18.741 24.2344 18.5541 24.2344 18.3594V17.5516C25.5129 17.3114 26.4375 16.4669 26.4375 15.4219C26.4375 14.1867 25.1472 13.2188 23.5 13.2188C22.6033 13.2188 22.0312 12.784 22.0312 12.4844C22.0312 12.1848 22.6033 11.75 23.5 11.75Z" fill="white"/>
<path d="M20.5625 7.34375H26.4375C26.6323 7.34375 26.8191 7.26638 26.9568 7.12866C27.0945 6.99093 27.1719 6.80415 27.1719 6.60938C27.1719 6.4146 27.0945 6.22782 26.9568 6.09009C26.8191 5.95237 26.6323 5.875 26.4375 5.875H20.5625C20.3677 5.875 20.1809 5.95237 20.0432 6.09009C19.9055 6.22782 19.8281 6.4146 19.8281 6.60938C19.8281 6.80415 19.9055 6.99093 20.0432 7.12866C20.1809 7.26638 20.3677 7.34375 20.5625 7.34375Z" fill="white"/>
<path d="M20.5625 22.0312H26.4375C26.6323 22.0312 26.8191 21.9538 26.9568 21.8162C27.0945 21.6785 27.1719 21.4916 27.1719 21.2969C27.1719 21.1021 27.0945 20.9153 26.9568 20.7776C26.8191 20.6399 26.6323 20.5625 26.4375 20.5625H20.5625C20.3677 20.5625 20.1809 20.6399 20.0432 20.7776C19.9055 20.9153 19.8281 21.1021 19.8281 21.2969C19.8281 21.4916 19.9055 21.6785 20.0432 21.8162C20.1809 21.9538 20.3677 22.0312 20.5625 22.0312Z" fill="white"/>
<path d="M14.6875 30.8438H32.3125C32.5073 30.8438 32.6941 30.7663 32.8318 30.6287C32.9695 30.491 33.0469 30.3041 33.0469 30.1094C33.0469 29.9146 32.9695 29.7278 32.8318 29.5901C32.6941 29.4524 32.5073 29.375 32.3125 29.375H14.6875C14.4927 29.375 14.3059 29.4524 14.1682 29.5901C14.0305 29.7278 13.9531 29.9146 13.9531 30.1094C13.9531 30.3041 14.0305 30.491 14.1682 30.6287C14.3059 30.7663 14.4927 30.8438 14.6875 30.8438Z" fill="white"/>
<path d="M14.6875 27.9062H32.3125C32.5073 27.9062 32.6941 27.8288 32.8318 27.6912C32.9695 27.5535 33.0469 27.3666 33.0469 27.1719C33.0469 26.9771 32.9695 26.7903 32.8318 26.6526C32.6941 26.5149 32.5073 26.4375 32.3125 26.4375H14.6875C14.4927 26.4375 14.3059 26.5149 14.1682 26.6526C14.0305 26.7903 13.9531 26.9771 13.9531 27.1719C13.9531 27.3666 14.0305 27.5535 14.1682 27.6912C14.3059 27.8288 14.4927 27.9062 14.6875 27.9062Z" fill="white"/>
<path d="M29.375 32.3125H14.6875C14.4927 32.3125 14.3059 32.3899 14.1682 32.5276C14.0305 32.6653 13.9531 32.8521 13.9531 33.0469C13.9531 33.2416 14.0305 33.4285 14.1682 33.5662C14.3059 33.7038 14.4927 33.7812 14.6875 33.7812H29.375C29.5698 33.7812 29.7566 33.7038 29.8943 33.5662C30.032 33.4285 30.1094 33.2416 30.1094 33.0469C30.1094 32.8521 30.032 32.6653 29.8943 32.5276C29.7566 32.3899 29.5698 32.3125 29.375 32.3125Z" fill="white"/>
<path d="M29.375 35.25H14.6875C14.4927 35.25 14.3059 35.3274 14.1682 35.4651C14.0305 35.6028 13.9531 35.7896 13.9531 35.9844C13.9531 36.1791 14.0305 36.366 14.1682 36.5037C14.3059 36.6413 14.4927 36.7188 14.6875 36.7188H29.375C29.5698 36.7188 29.7566 36.6413 29.8943 36.5037C30.032 36.366 30.1094 36.1791 30.1094 35.9844C30.1094 35.7896 30.032 35.6028 29.8943 35.4651C29.7566 35.3274 29.5698 35.25 29.375 35.25Z" fill="white"/>
<path d="M29.375 22.0312H30.1094C30.3041 22.0312 30.491 21.9538 30.6287 21.8162C30.7663 21.6785 30.8438 21.4916 30.8438 21.2969C30.8438 21.1021 30.7663 20.9153 30.6287 20.7776C30.491 20.6399 30.3041 20.5625 30.1094 20.5625H29.375C29.1802 20.5625 28.9934 20.6399 28.8557 20.7776C28.718 20.9153 28.6406 21.1021 28.6406 21.2969C28.6406 21.4916 28.718 21.6785 28.8557 21.8162C28.9934 21.9538 29.1802 22.0312 29.375 22.0312Z" fill="white"/>
<path d="M16.8906 22.0312H17.625C17.8198 22.0312 18.0066 21.9538 18.1443 21.8162C18.282 21.6785 18.3594 21.4916 18.3594 21.2969C18.3594 21.1021 18.282 20.9153 18.1443 20.7776C18.0066 20.6399 17.8198 20.5625 17.625 20.5625H16.8906C16.6959 20.5625 16.509 20.6399 16.3713 20.7776C16.2337 20.9153 16.1562 21.1021 16.1562 21.2969C16.1562 21.4916 16.2337 21.6785 16.3713 21.8162C16.509 21.9538 16.6959 22.0312 16.8906 22.0312Z" fill="white"/>
<path d="M29.375 7.34375H30.1094C30.3041 7.34375 30.491 7.26638 30.6287 7.12866C30.7663 6.99093 30.8438 6.80415 30.8438 6.60938C30.8438 6.4146 30.7663 6.22782 30.6287 6.09009C30.491 5.95237 30.3041 5.875 30.1094 5.875H29.375C29.1802 5.875 28.9934 5.95237 28.8557 6.09009C28.718 6.22782 28.6406 6.4146 28.6406 6.60938C28.6406 6.80415 28.718 6.99093 28.8557 7.12866C28.9934 7.26638 29.1802 7.34375 29.375 7.34375Z" fill="white"/>
<path d="M16.8906 7.34375H17.625C17.8198 7.34375 18.0066 7.26638 18.1443 7.12866C18.282 6.99093 18.3594 6.80415 18.3594 6.60938C18.3594 6.4146 18.282 6.22782 18.1443 6.09009C18.0066 5.95237 17.8198 5.875 17.625 5.875H16.8906C16.6959 5.875 16.509 5.95237 16.3713 6.09009C16.2337 6.22782 16.1562 6.4146 16.1562 6.60938C16.1562 6.80415 16.2337 6.99093 16.3713 7.12866C16.509 7.26638 16.6959 7.34375 16.8906 7.34375Z" fill="white"/>
<path d="M38.9219 30.8805V17.625H44.0625C44.2573 17.625 44.4441 17.5476 44.5818 17.4099C44.7195 17.2722 44.7969 17.0854 44.7969 16.8906V5.14062C44.7969 4.16679 44.41 3.23283 43.7214 2.54422C43.0328 1.8556 42.0989 1.46875 41.125 1.46875H11.75C10.7761 1.46875 9.84225 1.8556 9.15362 2.54422C8.465 3.23283 8.07813 4.16679 8.07813 5.14062V44.7969C8.07762 44.9421 8.12072 45.0842 8.20187 45.2047C8.28309 45.3252 8.39861 45.4184 8.53344 45.4725C8.62061 45.5137 8.71615 45.5338 8.8125 45.5312C9.00763 45.5318 9.19504 45.4552 9.33391 45.3183L11.75 42.8948L14.1661 45.3183C14.3047 45.4559 14.4922 45.5331 14.6875 45.5331C14.8828 45.5331 15.0703 45.4559 15.2089 45.3183L17.625 42.8948L20.0411 45.3183C20.1797 45.4559 20.3672 45.5331 20.5625 45.5331C20.7578 45.5331 20.9453 45.4559 21.0839 45.3183L23.5 42.8948L25.9161 45.3183C26.0547 45.4559 26.2422 45.5331 26.4375 45.5331C26.6328 45.5331 26.8203 45.4559 26.9589 45.3183L29.375 42.8948L31.7911 45.3183C31.9297 45.4559 32.1172 45.5331 32.3125 45.5331C32.5078 45.5331 32.6953 45.4559 32.8339 45.3183L33.9648 44.1873C34.8832 44.8359 35.9382 45.265 37.0486 45.4415C38.1589 45.618 39.2949 45.5372 40.3691 45.2053C41.4433 44.8735 42.4269 44.2993 43.2443 43.5274C44.0615 42.7553 44.6907 41.8059 45.0831 40.7524C45.4756 39.6988 45.6209 38.5692 45.5079 37.4506C45.3949 36.332 45.0266 35.2543 44.4313 34.3005C43.836 33.3468 43.0298 32.5424 42.0745 31.9495C41.1193 31.3565 40.0408 30.9908 38.9219 30.8805ZM38.9219 5.14062C38.9219 4.55632 39.154 3.99595 39.5672 3.58278C39.9803 3.16961 40.5407 2.9375 41.125 2.9375C41.7093 2.9375 42.2697 3.16961 42.6828 3.58278C43.096 3.99595 43.3281 4.55632 43.3281 5.14062V16.1562H38.9219V5.14062ZM32.3125 43.7614L29.8964 41.338C29.7578 41.2003 29.5703 41.1232 29.375 41.1232C29.1797 41.1232 28.9922 41.2003 28.8536 41.338L26.4375 43.7614L24.0214 41.338C23.8828 41.2003 23.6953 41.1232 23.5 41.1232C23.3047 41.1232 23.1172 41.2003 22.9786 41.338L20.5625 43.7614L18.1464 41.338C18.0078 41.2003 17.8203 41.1232 17.625 41.1232C17.4297 41.1232 17.2422 41.2003 17.1036 41.338L14.6875 43.7614L12.2714 41.338C12.1328 41.2003 11.9453 41.1232 11.75 41.1232C11.5547 41.1232 11.3672 41.2003 11.2286 41.338L9.54688 43.027V5.14062C9.54864 4.55686 9.78129 3.9975 10.1941 3.5847C10.6069 3.17192 11.1662 2.93924 11.75 2.9375H38.2095C37.7213 3.56834 37.4553 4.34292 37.4531 5.14062V30.8805C36.0879 31.015 34.7878 31.53 33.7008 32.367C32.6139 33.2039 31.7837 34.3292 31.3046 35.6147C30.8256 36.9002 30.7171 38.2944 30.9914 39.6385C31.2656 40.9827 31.9116 42.2229 32.8559 43.218L32.3125 43.7614ZM38.1875 44.0625C37.0256 44.0625 35.8896 43.7179 34.9235 43.0724C33.9574 42.4268 33.2044 41.5093 32.7597 40.4358C32.3151 39.3623 32.1987 38.181 32.4254 37.0414C32.6521 35.9017 33.2116 34.8549 34.0333 34.0332C34.8549 33.2116 35.9017 32.6521 37.0414 32.4254C38.181 32.1987 39.3623 32.3151 40.4358 32.7597C41.5093 33.2044 42.4268 33.9574 43.0724 34.9235C43.7179 35.8896 44.0625 37.0255 44.0625 38.1875C44.0604 39.745 43.4407 41.2381 42.3394 42.3394C41.2381 43.4407 39.745 44.0604 38.1875 44.0625Z" fill="white"/>
<path d="M42.1269 35.7172C41.9891 35.5795 41.8024 35.5022 41.6077 35.5022C41.4129 35.5022 41.2262 35.5795 41.0885 35.7172L37.4533 39.3523L35.895 37.794C35.7565 37.6602 35.571 37.5862 35.3784 37.5879C35.1859 37.5896 35.0016 37.6668 34.8654 37.8029C34.7293 37.9391 34.6521 38.1233 34.6504 38.3158C34.6487 38.5084 34.7228 38.6939 34.8566 38.8324L36.9341 40.91C37.0718 41.0476 37.2586 41.1249 37.4533 41.1249C37.648 41.1249 37.8347 41.0476 37.9725 40.91L42.1269 36.7556C42.2645 36.6179 42.3418 36.4311 42.3418 36.2364C42.3418 36.0417 42.2645 35.8549 42.1269 35.7172Z" fill="white"/>
</svg>
