<svg width="52" height="47" viewBox="0 0 52 47" fill="none" xmlns="http://www.w3.org/2000/svg">
<path d="M25.1275 1.1709C11.5099 1.1709 1.17082 10.2337 1.17082 21.4041C1.06811 23.909 1.59393 26.3998 2.70036 28.6495C3.8068 30.8992 5.45866 32.8362 7.5054 34.284V34.284C8.18913 37.4399 8.02348 40.7207 7.02533 43.7917C6.94205 44.0709 6.93754 44.3676 7.01229 44.6492C7.08705 44.9308 7.23816 45.1862 7.44895 45.3873C7.65973 45.5884 7.92199 45.7273 8.20677 45.7888C8.49154 45.8502 8.78775 45.8317 9.0627 45.7354L21.4625 41.3445C22.7265 41.5315 24.002 41.6293 25.2797 41.6373C38.8973 41.6373 49.8686 32.5745 49.8686 21.4041C49.8686 10.2337 38.7451 1.1709 25.1275 1.1709Z" stroke="white" stroke-width="2" stroke-linecap="round" stroke-linejoin="round"/>
<path d="M21.2522 41.3446C18.4677 40.8049 15.7824 39.8414 13.29 38.4875" stroke="white" stroke-width="2" stroke-linecap="round" stroke-linejoin="round"/>
<path d="M15.0338 24.8699C16.5664 24.8699 17.8089 23.6275 17.8089 22.0949C17.8089 20.5623 16.5664 19.3198 15.0338 19.3198C13.5012 19.3198 12.2588 20.5623 12.2588 22.0949C12.2588 23.6275 13.5012 24.8699 15.0338 24.8699Z" fill="white"/>
<path d="M25.9 24.8699C27.4326 24.8699 28.6751 23.6275 28.6751 22.0949C28.6751 20.5623 27.4326 19.3198 25.9 19.3198C24.3674 19.3198 23.125 20.5623 23.125 22.0949C23.125 23.6275 24.3674 24.8699 25.9 24.8699Z" fill="white"/>
<path d="M36.7662 24.8699C38.2989 24.8699 39.5413 23.6275 39.5413 22.0949C39.5413 20.5623 38.2989 19.3198 36.7662 19.3198C35.2336 19.3198 33.9912 20.5623 33.9912 22.0949C33.9912 23.6275 35.2336 24.8699 36.7662 24.8699Z" fill="white"/>
</svg>
