<svg width="47" height="47" viewBox="0 0 47 47" fill="none" xmlns="http://www.w3.org/2000/svg">
<g clip-path="url(#clip0_107_206)">
<path d="M18.9442 36.0817C18.3978 36.0817 17.8707 35.8737 17.4718 35.4975L9.57841 28.0623C8.71507 27.2492 8.67441 25.8905 9.48746 25.0271C10.3012 24.1645 11.6599 24.1238 12.5226 24.9362L18.8223 30.87L33.344 14.8372C34.1398 13.9581 35.4972 13.8905 36.3764 14.687C37.2556 15.4835 37.3224 16.8409 36.5266 17.7201L20.5359 35.3755C20.1486 35.8034 19.6057 36.0569 19.029 36.0797C19.0007 36.0811 18.9725 36.0817 18.9442 36.0817Z" fill="black"/>
<path d="M44.3452 47H2.14767C0.96187 47 0 46.0395 0 44.853V2.14767C0 0.96187 0.96187 0 2.14767 0H44.3452C45.5317 0 46.4922 0.96187 46.4922 2.14767V44.853C46.4922 46.0395 45.5317 47 44.3452 47ZM4.29465 42.706H42.1975V4.29465H4.29465V42.706Z" fill="black"/>
</g>
<defs>
<clipPath id="clip0_107_206">
<rect width="46.4922" height="47" fill="white"/>
</clipPath>
</defs>
</svg>
